{
	"asset":{
		"generator":"Khronos glTF Blender I/O v4.0.44",
		"version":"2.0"
	},
	"scene":0,
	"scenes":[
		{
			"name":"Scene",
			"nodes":[
				5
			]
		}
	],
	"nodes":[
		{
			"mesh":0,
			"name":"diamond",
			"rotation":[
				-0.70710688829422,
				0,
				0,
				0.7071066498756409
			],
			"translation":[
				-0.30013272166252136,
				-1.3070135116577148,
				19.922595977783203
			]
		},
		{
			"mesh":1,
			"name":"ring",
			"rotation":[
				-0.70710688829422,
				0,
				0,
				0.7071066498756409
			],
			"translation":[
				-0.30013272166252136,
				-1.3070135116577148,
				19.92259979248047
			]
		},
		{
			"mesh":2,
			"name":"smalldiamonds",
			"rotation":[
				0,
				-0.7431447505950928,
				0,
				0.6691306829452515
			],
			"scale":[
				0.006807999685406685,
				0.006806999444961548,
				0.006807999685406685
			],
			"translation":[
				-0.34236565232276917,
				10.308538436889648,
				4.141059875488281
			]
		},
		{
			"children":[
				0,
				1,
				2
			],
			"name":"ring-compare.001",
			"scale":[
				0.009999999776482582,
				0.009999999776482582,
				0.009999999776482582
			]
		},
		{
			"children":[
				3
			],
			"name":"Scene",
			"scale":[
				11.400167465209961,
				11.400167465209961,
				11.400167465209961
			],
			"translation":[
				0,
				-0.018175259232521057,
				-0.001042268704622984
			]
		},
		{
			"children":[
				4
			],
			"name":"Node_65.001",
			"translation":[
				0.002786631230264902,
				0.12279665470123291,
				0.00758416997268796
			]
		}
	],
	"materials":[
		{
			"name":"Material_3.002",
			"pbrMetallicRoughness":{
				"metallicFactor":0
			}
		},
		{
			"doubleSided":true,
			"name":"metal.001",
			"pbrMetallicRoughness":{
				"baseColorFactor":[
					0.5882353186607361,
					0.5882353186607361,
					0.5882353186607361,
					1
				],
				"roughnessFactor":0
			}
		},
		{
			"name":"Material_2.002",
			"pbrMetallicRoughness":{
				"metallicFactor":0
			}
		},
		{
			"name":"Material_1.002",
			"pbrMetallicRoughness":{
				"metallicFactor":0
			}
		}
	],
	"meshes":[
		{
			"name":"Mesh_2.002",
			"primitives":[
				{
					"attributes":{
						"POSITION":0,
						"NORMAL":1
					},
					"indices":2,
					"material":0
				}
			]
		},
		{
			"name":"Mesh_3.002",
			"primitives":[
				{
					"attributes":{
						"POSITION":3,
						"NORMAL":4
					},
					"indices":5,
					"material":1
				}
			]
		},
		{
			"name":"Mesh_1.002",
			"primitives":[
				{
					"attributes":{
						"POSITION":6,
						"NORMAL":7
					},
					"indices":8,
					"material":2
				},
				{
					"attributes":{
						"POSITION":9,
						"NORMAL":10
					},
					"indices":11,
					"material":3
				}
			]
		}
	],
	"accessors":[
		{
			"bufferView":0,
			"componentType":5126,
			"count":857,
			"max":[
				3.25,
				23.25,
				14.272428512573242
			],
			"min":[
				-3.25,
				16.75,
				9.8026123046875
			],
			"type":"VEC3"
		},
		{
			"bufferView":1,
			"componentType":5126,
			"count":857,
			"type":"VEC3"
		},
		{
			"bufferView":2,
			"componentType":5123,
			"count":1668,
			"type":"SCALAR"
		},
		{
			"bufferView":3,
			"componentType":5126,
			"count":58103,
			"max":[
				10.98061752319336,
				24.85125732421875,
				13.992538452148438
			],
			"min":[
				-10.38034439086914,
				15.133419036865234,
				-11.578668594360352
			],
			"type":"VEC3"
		},
		{
			"bufferView":4,
			"componentType":5126,
			"count":58103,
			"type":"VEC3"
		},
		{
			"bufferView":5,
			"componentType":5123,
			"count":340776,
			"type":"SCALAR"
		},
		{
			"bufferView":6,
			"componentType":5126,
			"count":9180,
			"max":[
				116.26071166992188,
				96.39993286132812,
				767.6057739257812
			],
			"min":[
				-1327.30029296875,
				-47.17491149902344,
				-652.9729614257812
			],
			"type":"VEC3"
		},
		{
			"bufferView":7,
			"componentType":5126,
			"count":9180,
			"type":"VEC3"
		},
		{
			"bufferView":8,
			"componentType":5123,
			"count":14496,
			"type":"SCALAR"
		},
		{
			"bufferView":9,
			"componentType":5126,
			"count":25398,
			"max":[
				-352.8741149902344,
				-257.5811462402344,
				1593.825439453125
			],
			"min":[
				-892.7999267578125,
				-3419.14794921875,
				-1564.031494140625
			],
			"type":"VEC3"
		},
		{
			"bufferView":10,
			"componentType":5126,
			"count":25398,
			"type":"VEC3"
		},
		{
			"bufferView":11,
			"componentType":5123,
			"count":39864,
			"type":"SCALAR"
		}
	],
	"bufferViews":[
		{
			"buffer":0,
			"byteLength":10284,
			"byteOffset":0,
			"target":34962
		},
		{
			"buffer":0,
			"byteLength":10284,
			"byteOffset":10284,
			"target":34962
		},
		{
			"buffer":0,
			"byteLength":3336,
			"byteOffset":20568,
			"target":34963
		},
		{
			"buffer":0,
			"byteLength":697236,
			"byteOffset":23904,
			"target":34962
		},
		{
			"buffer":0,
			"byteLength":697236,
			"byteOffset":721140,
			"target":34962
		},
		{
			"buffer":0,
			"byteLength":681552,
			"byteOffset":1418376,
			"target":34963
		},
		{
			"buffer":0,
			"byteLength":110160,
			"byteOffset":2099928,
			"target":34962
		},
		{
			"buffer":0,
			"byteLength":110160,
			"byteOffset":2210088,
			"target":34962
		},
		{
			"buffer":0,
			"byteLength":28992,
			"byteOffset":2320248,
			"target":34963
		},
		{
			"buffer":0,
			"byteLength":304776,
			"byteOffset":2349240,
			"target":34962
		},
		{
			"buffer":0,
			"byteLength":304776,
			"byteOffset":2654016,
			"target":34962
		},
		{
			"buffer":0,
			"byteLength":79728,
			"byteOffset":2958792,
			"target":34963
		}
	],
	"buffers":[
		{
			"byteLength":3038520,
			"uri":"Ring2.bin"
		}
	]
}
