{
	"asset":{
		"generator":"Khronos glTF Blender I/O v4.0.44",
		"version":"2.0"
	},
	"scene":0,
	"scenes":[
		{
			"name":"Scene",
			"nodes":[
				4
			]
		}
	],
	"nodes":[
		{
			"mesh":0,
			"name":"diamonds"
		},
		{
			"mesh":1,
			"name":"gold"
		},
		{
			"mesh":2,
			"name":"silver"
		},
		{
			"children":[
				0,
				1,
				2
			],
			"name":"Scene_1",
			"rotation":[
				0,
				0,
				0.4349656105041504,
				0.9004471898078918
			],
			"scale":[
				1.0627484321594238,
				1.0627484321594238,
				1.0627485513687134
			]
		},
		{
			"children":[
				3
			],
			"name":"Scene-centered",
			"rotation":[
				-0.2434467375278473,
				-0.6623228788375854,
				-0.6719955801963806,
				0.2246866673231125
			],
			"translation":[
				-0.00033217985765077174,
				-0.042911916971206665,
				-0.09258595108985901
			]
		}
	],
	"materials":[
		{
			"name":"Material_1.003",
			"pbrMetallicRoughness":{
				"metallicFactor":0
			}
		},
		{
			"doubleSided":true,
			"name":"gold.002",
			"pbrMetallicRoughness":{
				"baseColorFactor":[
					0.7379103899002075,
					0.4677838087081909,
					0.15292614698410034,
					1
				],
				"roughnessFactor":0
			}
		},
		{
			"doubleSided":true,
			"name":"silver.001",
			"pbrMetallicRoughness":{
				"metallicFactor":0.9096837639808655,
				"roughnessFactor":0
			}
		}
	],
	"meshes":[
		{
			"name":"Mesh_3",
			"primitives":[
				{
					"attributes":{
						"POSITION":0,
						"NORMAL":1
					},
					"indices":2
				},
				{
					"attributes":{
						"POSITION":3,
						"NORMAL":4
					},
					"indices":5
				},
				{
					"attributes":{
						"POSITION":6,
						"NORMAL":7
					},
					"indices":8
				},
				{
					"attributes":{
						"POSITION":9,
						"NORMAL":10
					},
					"indices":11,
					"material":0
				},
				{
					"attributes":{
						"POSITION":12,
						"NORMAL":13
					},
					"indices":14
				},
				{
					"attributes":{
						"POSITION":15,
						"NORMAL":16
					},
					"indices":17
				}
			]
		},
		{
			"name":"Mesh_6",
			"primitives":[
				{
					"attributes":{
						"POSITION":18,
						"NORMAL":19
					},
					"indices":20,
					"material":1
				}
			]
		},
		{
			"name":"Mesh_7",
			"primitives":[
				{
					"attributes":{
						"POSITION":21,
						"NORMAL":22
					},
					"indices":23,
					"material":2
				}
			]
		}
	],
	"accessors":[
		{
			"bufferView":0,
			"componentType":5126,
			"count":600,
			"max":[
				0.4466251730918884,
				-0.21616137027740479,
				1.239372968673706
			],
			"min":[
				0.24336549639701843,
				-0.42461228370666504,
				1.1006219387054443
			],
			"type":"VEC3"
		},
		{
			"bufferView":1,
			"componentType":5126,
			"count":600,
			"type":"VEC3"
		},
		{
			"bufferView":2,
			"componentType":5123,
			"count":954,
			"type":"SCALAR"
		},
		{
			"bufferView":3,
			"componentType":5126,
			"count":596,
			"max":[
				0.5753352642059326,
				0.06244779750704765,
				1.2346093654632568
			],
			"min":[
				0.3008233904838562,
				-0.22706738114356995,
				1.041475534439087
			],
			"type":"VEC3"
		},
		{
			"bufferView":4,
			"componentType":5126,
			"count":596,
			"type":"VEC3"
		},
		{
			"bufferView":5,
			"componentType":5123,
			"count":942,
			"type":"SCALAR"
		},
		{
			"bufferView":6,
			"componentType":5126,
			"count":602,
			"max":[
				-0.2531214654445648,
				0.3586772382259369,
				1.2501837015151978
			],
			"min":[
				-0.5352851748466492,
				0.06916207820177078,
				1.058057188987732
			],
			"type":"VEC3"
		},
		{
			"bufferView":7,
			"componentType":5126,
			"count":602,
			"type":"VEC3"
		},
		{
			"bufferView":8,
			"componentType":5123,
			"count":948,
			"type":"SCALAR"
		},
		{
			"bufferView":9,
			"componentType":5126,
			"count":610,
			"max":[
				-0.5350266695022583,
				0.24087628722190857,
				1.1518129110336304
			],
			"min":[
				-0.7582319974899292,
				-0.02547764778137207,
				0.9710896015167236
			],
			"type":"VEC3"
		},
		{
			"bufferView":10,
			"componentType":5126,
			"count":610,
			"type":"VEC3"
		},
		{
			"bufferView":11,
			"componentType":5123,
			"count":948,
			"type":"SCALAR"
		},
		{
			"bufferView":12,
			"componentType":5126,
			"count":597,
			"max":[
				-0.28886502981185913,
				0.06772764027118683,
				1.2622610330581665
			],
			"min":[
				-0.6106401681900024,
				-0.2681099474430084,
				1.0385128259658813
			],
			"type":"VEC3"
		},
		{
			"bufferView":13,
			"componentType":5126,
			"count":597,
			"type":"VEC3"
		},
		{
			"bufferView":14,
			"componentType":5123,
			"count":948,
			"type":"SCALAR"
		},
		{
			"bufferView":15,
			"componentType":5126,
			"count":605,
			"max":[
				0.2982006072998047,
				0.29820042848587036,
				1.4112019538879395
			],
			"min":[
				-0.2982006072998047,
				-0.2982008457183838,
				1.0776716470718384
			],
			"type":"VEC3"
		},
		{
			"bufferView":16,
			"componentType":5126,
			"count":605,
			"type":"VEC3"
		},
		{
			"bufferView":17,
			"componentType":5123,
			"count":948,
			"type":"SCALAR"
		},
		{
			"bufferView":18,
			"componentType":5126,
			"count":10962,
			"max":[
				1.2365846633911133,
				0.5503116846084595,
				1.2395110130310059
			],
			"min":[
				-1.235959529876709,
				0.11043255776166916,
				-1.2369632720947266
			],
			"type":"VEC3"
		},
		{
			"bufferView":19,
			"componentType":5126,
			"count":10962,
			"type":"VEC3"
		},
		{
			"bufferView":20,
			"componentType":5123,
			"count":63579,
			"type":"SCALAR"
		},
		{
			"bufferView":21,
			"componentType":5126,
			"count":43408,
			"max":[
				1.2251249551773071,
				0.3676631450653076,
				1.4073524475097656
			],
			"min":[
				-1.225305438041687,
				-0.46955519914627075,
				-1.2253055572509766
			],
			"type":"VEC3"
		},
		{
			"bufferView":22,
			"componentType":5126,
			"count":43408,
			"type":"VEC3"
		},
		{
			"bufferView":23,
			"componentType":5123,
			"count":259683,
			"type":"SCALAR"
		}
	],
	"bufferViews":[
		{
			"buffer":0,
			"byteLength":7200,
			"byteOffset":0,
			"target":34962
		},
		{
			"buffer":0,
			"byteLength":7200,
			"byteOffset":7200,
			"target":34962
		},
		{
			"buffer":0,
			"byteLength":1908,
			"byteOffset":14400,
			"target":34963
		},
		{
			"buffer":0,
			"byteLength":7152,
			"byteOffset":16308,
			"target":34962
		},
		{
			"buffer":0,
			"byteLength":7152,
			"byteOffset":23460,
			"target":34962
		},
		{
			"buffer":0,
			"byteLength":1884,
			"byteOffset":30612,
			"target":34963
		},
		{
			"buffer":0,
			"byteLength":7224,
			"byteOffset":32496,
			"target":34962
		},
		{
			"buffer":0,
			"byteLength":7224,
			"byteOffset":39720,
			"target":34962
		},
		{
			"buffer":0,
			"byteLength":1896,
			"byteOffset":46944,
			"target":34963
		},
		{
			"buffer":0,
			"byteLength":7320,
			"byteOffset":48840,
			"target":34962
		},
		{
			"buffer":0,
			"byteLength":7320,
			"byteOffset":56160,
			"target":34962
		},
		{
			"buffer":0,
			"byteLength":1896,
			"byteOffset":63480,
			"target":34963
		},
		{
			"buffer":0,
			"byteLength":7164,
			"byteOffset":65376,
			"target":34962
		},
		{
			"buffer":0,
			"byteLength":7164,
			"byteOffset":72540,
			"target":34962
		},
		{
			"buffer":0,
			"byteLength":1896,
			"byteOffset":79704,
			"target":34963
		},
		{
			"buffer":0,
			"byteLength":7260,
			"byteOffset":81600,
			"target":34962
		},
		{
			"buffer":0,
			"byteLength":7260,
			"byteOffset":88860,
			"target":34962
		},
		{
			"buffer":0,
			"byteLength":1896,
			"byteOffset":96120,
			"target":34963
		},
		{
			"buffer":0,
			"byteLength":131544,
			"byteOffset":98016,
			"target":34962
		},
		{
			"buffer":0,
			"byteLength":131544,
			"byteOffset":229560,
			"target":34962
		},
		{
			"buffer":0,
			"byteLength":127158,
			"byteOffset":361104,
			"target":34963
		},
		{
			"buffer":0,
			"byteLength":520896,
			"byteOffset":488264,
			"target":34962
		},
		{
			"buffer":0,
			"byteLength":520896,
			"byteOffset":1009160,
			"target":34962
		},
		{
			"buffer":0,
			"byteLength":519366,
			"byteOffset":1530056,
			"target":34963
		}
	],
	"buffers":[
		{
			"byteLength":2049424,
			"uri":"Ring.bin"
		}
	]
}
